<!DOCTYPE svg PUBLIC "-//W3C//DTD SVG 20010904//EN" "http://www.w3.org/TR/2001/REC-SVG-20010904/DTD/svg10.dtd"[]>
<svg version="1.0" xmlns="http://www.w3.org/2000/svg" width="670.000000pt" height="713.000000pt" viewBox="0 0 670.000000 713.000000" preserveAspectRatio="xMidYMid meet">
  <metadata>
Created by potrace 1.16, written by Peter Selinger 2001-2019
</metadata>
  <g transform="translate(0.000000,713.000000) scale(0.100000,-0.100000)" fill="#000000" stroke="none">
    <path d="M3110 7123 c-287 -21 -666 -116 -960 -240 -425 -181 -818 -450 -1146 -784 -284 -291 -478 -565 -659 -934 -131 -264 -211 -498 -275 -805 -62 -292 -60 -218 -60 -1937 l0 -1573 747 0 746 0 101 -98 c250 -243 501 -407 806 -527 52 -20 134 -55 181 -76 100 -45 308 -102 454 -123 110 -16 445 -24 540 -13 529 62 1078 328 1479 717 l118 115 754 3 754 2 0 1598 c0 1338 -3 1613 -15 1699 -59 419 -203 837 -416 1208 -81 142 -226 362 -254 385 -9 8 -46 1 -130 -25 -64 -19 -124 -35 -134 -35 -10 0 -51 30 -90 66 l-72 67 -37 -37 c-62 -60 -89 -37 -32 27 l29 34 -19 64 c-27 88 -26 101 21 186 56 101 55 104 -86 229 -469 415 -1118 714 -1715 790 -105 13 -522 24 -630 17z m-313 -732 c-117 -130 -135 -309 -45 -459 96 -158 312 -241 478 -182 30 11 59 19 63 20 18 0 -49 -99 -100 -148 -98 -94 -197 -129 -346 -119 -120 8 -214 51 -298 137 -251 256 -146 660 200 771 81 26 87 23 48 -20z m773 21 c0 -24 36 -62 59 -62 34 0 30 -13 -12 -34 -32 -16 -43 -28 -48 -51 l-5 -30 -17 38 c-11 26 -27 42 -47 50 -38 15 -38 22 2 33 24 7 35 18 42 42 10 35 26 43 26 14z m761 -208 c6 -8 29 -19 52 -26 l40 -12 -29 -10 c-58 -21 -71 -35 -84 -83 l-12 -48 -13 43 c-16 54 -38 79 -76 87 -30 7 -40 25 -14 25 37 0 72 29 85 72 l13 43 13 -39 c8 -21 19 -45 25 -52z m-626 -144 c0 -22 -29 -18 -33 3 -3 14 1 18 15 15 10 -2 18 -10 18 -18z m-1505 -60 c23 -17 23 -18 3 -24 -11 -4 -25 -18 -31 -31 -13 -27 -32 -34 -32 -11 0 8 -12 24 -26 35 l-27 21 26 20 c14 11 29 31 33 43 7 21 8 21 19 -7 7 -16 23 -37 35 -46z m2380 30 c0 -5 -4 -10 -10 -10 -5 0 -10 5 -10 10 0 6 5 10 10 10 6 0 10 -4 10 -10z m-590 -67 c1 -45 36 -111 71 -132 18 -11 55 -25 83 -32 l51 -12 -65 -18 c-93 -25 -140 -86 -140 -183 0 -44 -15 -20 -29 46 -7 31 -22 69 -33 84 -25 31 -91 63 -133 64 -26 1 -27 3 -10 10 11 5 40 14 64 20 62 16 96 54 111 123 14 60 30 76 30 30z m-2026 -154 c39 -14 48 -29 17 -29 -29 0 -69 -37 -77 -73 l-7 -32 -14 43 c-15 42 -50 71 -90 73 -10 0 2 8 26 16 35 12 47 23 60 54 l16 38 17 -38 c12 -29 26 -42 52 -52z m3131 66 c49 -9 118 -27 154 -42 74 -29 171 -88 171 -103 0 -5 -9 -19 -19 -29 -20 -20 -20 -20 -63 1 -24 12 -83 34 -133 51 -78 26 -109 31 -226 35 -116 4 -147 1 -211 -17 -159 -43 -266 -108 -378 -228 -130 -139 -212 -358 -198 -527 5 -56 4 -57 -34 -88 -21 -17 -41 -28 -43 -26 -3 2 -5 62 -5 134 -1 186 38 328 129 466 64 96 118 157 194 214 193 144 424 200 662 159z m417 -247 c64 -96 63 -106 -6 -39 -50 50 -63 68 -54 78 17 20 22 17 60 -39z m-3805 -27 l28 -13 -29 -12 c-20 -8 -33 -24 -41 -46 l-12 -35 -8 34 c-5 24 -15 37 -36 44 -37 14 -37 22 1 35 20 7 32 20 36 39 l7 28 13 -31 c7 -16 25 -36 41 -43z m1873 23 c0 -8 -4 -12 -10 -9 -5 3 -10 13 -10 21 0 8 5 12 10 9 6 -3 10 -13 10 -21z m1743 -19 c18 -18 24 -190 7 -200 -6 -4 -9 -13 -6 -20 2 -7 -2 -25 -10 -40 -8 -15 -14 -37 -14 -49 -1 -20 -2 -19 -26 8 -21 24 -23 31 -12 45 12 14 11 15 -5 2 -15 -12 -20 -11 -37 4 -11 10 -17 23 -13 29 3 6 3 8 -2 4 -4 -4 -14 -3 -22 3 -11 10 -11 15 -1 28 11 14 11 14 -3 4 -12 -10 -20 -9 -37 3 -12 8 -20 20 -16 25 3 5 2 8 -3 7 -4 -2 -23 8 -41 22 -23 17 -29 26 -20 33 9 5 6 7 -7 3 -11 -3 -36 5 -58 18 l-37 23 27 12 c98 45 305 67 336 36z m-3003 -21 c0 -9 -5 -14 -12 -12 -18 6 -21 28 -4 28 9 0 16 -7 16 -16z m1164 -57 c12 -5 9 -12 -11 -34 l-26 -29 -27 26 -26 25 23 23 c13 13 23 28 23 35 1 7 7 0 15 -14 8 -15 21 -29 29 -32z m1397 -29 l-34 -32 54 -46 c92 -77 249 -233 243 -242 -3 -4 -1 -8 3 -8 5 0 14 -9 21 -20 24 -39 -7 -19 -65 40 -32 33 -63 60 -70 60 -7 0 -13 3 -13 8 0 4 -11 14 -24 22 -13 8 -52 40 -86 70 -99 87 -92 86 -181 21 -43 -32 -124 -101 -181 -154 -116 -108 -157 -142 -164 -134 -11 10 234 251 320 316 80 59 192 130 206 131 3 0 -10 -15 -29 -32z m869 -412 c0 -96 -54 -273 -117 -385 -77 -137 -234 -281 -388 -358 -126 -63 -292 -86 -462 -62 -54 7 -102 12 -106 11 -5 -2 1 10 12 25 46 62 36 59 172 55 105 -3 141 0 215 18 169 41 305 129 413 264 94 118 147 247 176 429 6 35 7 37 45 37 39 0 40 -1 40 -34z m-1110 -35 c0 -5 -48 -61 -107 -123 -60 -63 -155 -165 -213 -226 -97 -104 -130 -129 -130 -101 0 24 415 459 437 459 7 0 13 -4 13 -9z m-155 -10 c-6 -5 -45 -28 -89 -50 -112 -58 -262 -168 -369 -270 -88 -85 -152 -129 -165 -116 -9 9 172 182 263 250 109 81 242 160 301 179 59 18 71 19 59 7z m-2330 -158 c86 -31 195 -160 195 -231 0 -18 -6 -22 -34 -22 -19 0 -37 -4 -41 -9 -7 -12 49 -28 95 -27 31 1 35 4 33 26 -2 14 -21 60 -42 103 -42 81 -39 98 9 46 37 -41 76 -115 84 -161 l7 -37 -78 -3 c-78 -3 -78 -3 -81 -32 -3 -22 -6 -26 -13 -15 -7 11 -9 11 -9 -4 0 -10 -4 -16 -9 -12 -6 3 -14 -2 -19 -11 -7 -12 -11 10 -14 72 -3 74 -10 100 -35 154 -18 36 -46 79 -64 95 -35 33 -35 31 3 -40 38 -74 61 -220 42 -270 -5 -13 -8 -14 -15 -3 -7 10 -9 9 -9 -4 0 -19 -39 -14 -41 6 -1 6 -5 -2 -9 -19 -7 -28 -8 -29 -10 -5 l-2 25 -8 -25 c-6 -18 -8 -5 -9 45 -1 39 -4 86 -7 107 -5 28 -3 37 10 41 14 4 13 5 -1 3 -12 -1 -25 14 -39 45 -43 91 -132 160 -188 143 -39 -12 -3 13 44 30 57 21 183 15 255 -11z m2704 -121 c-20 -27 -355 -372 -363 -372 -24 0 16 47 165 195 94 94 179 178 187 187 21 22 28 15 11 -10z m-2938 -63 c45 -32 71 -121 50 -174 -6 -15 -9 -10 -15 25 -11 70 -43 117 -98 144 -35 18 -44 26 -31 29 26 6 64 -3 94 -24z m-247 0 c42 -33 59 -75 53 -133 -6 -62 -26 -108 -43 -102 -9 3 -11 -1 -7 -12 4 -10 2 -14 -3 -9 -5 5 -9 19 -9 32 -1 18 2 21 11 14 9 -8 11 -5 7 10 -3 11 0 35 6 53 8 24 8 34 0 42 -7 6 -10 7 -7 1 3 -5 0 -15 -7 -22 -10 -9 -14 -4 -19 28 -4 25 -19 54 -42 79 l-36 40 34 0 c21 0 46 -9 62 -21z m256 -123 c0 -18 -3 -17 -20 9 -26 39 -26 53 0 30 11 -10 20 -28 20 -39z m2232 -52 l29 -31 -64 -94 c-93 -137 -150 -229 -145 -235 7 -6 142 91 242 174 l80 66 15 -24 c42 -64 42 -64 85 -24 30 27 41 32 47 22 11 -17 29 -78 29 -99 0 -49 -473 -413 -712 -548 l-58 -33 0 24 c0 109 88 466 149 602 10 22 35 82 56 131 21 50 42 96 48 103 5 6 28 13 51 13 22 1 55 4 71 8 22 5 32 3 39 -9 5 -8 22 -29 38 -46z m-2541 -17 c-10 -9 -11 -8 -5 6 3 10 9 15 12 12 3 -3 0 -11 -7 -18z m814 -79 c-18 -46 -72 -108 -92 -108 -12 0 -11 5 5 28 10 15 29 53 42 84 23 55 52 80 58 48 2 -9 -4 -32 -13 -52z m-480 -218 c28 -7 56 -14 63 -16 6 -2 12 -10 12 -18 0 -12 -5 -14 -26 -6 -41 16 -82 12 -88 -7 -3 -10 -12 -97 -21 -193 -8 -96 -26 -276 -40 -400 -13 -124 -34 -323 -46 -442 -20 -196 -25 -218 -41 -218 -10 0 -18 3 -18 8 0 4 5 45 10 92 5 47 21 220 35 385 14 165 34 398 45 519 11 120 20 237 20 260 0 47 7 59 30 53 8 -3 38 -10 65 -17z m483 -6 l92 -7 -1 -201 c-1 -116 -4 -190 -9 -176 -7 22 -8 20 -9 -15 0 -29 2 -36 9 -25 8 12 10 11 10 -7 0 -22 -1 -22 -194 -23 -168 0 -195 2 -200 16 -8 21 -6 222 4 304 6 56 7 59 10 25 2 -22 4 -59 4 -82 1 -23 7 -48 14 -54 18 -19 16 -138 -3 -159 -15 -16 -12 -18 37 -25 29 -4 103 -7 163 -7 135 1 125 0 125 13 0 5 -6 7 -12 3 -10 -6 -10 -4 0 7 8 9 12 52 12 136 0 119 -1 124 -22 132 -13 5 -25 7 -27 5 -1 -1 -2 -59 -2 -128 2 -104 -1 -126 -13 -126 -8 0 -17 -6 -19 -12 -3 -7 -5 28 -5 77 1 68 3 80 8 50 5 -30 7 -16 7 50 0 73 -2 81 -7 45 -6 -36 -7 -30 -5 28 3 57 1 72 -11 72 -8 0 -14 7 -14 15 0 12 -11 15 -47 14 -27 -1 -68 4 -92 10 -26 8 -46 9 -50 3 -8 -12 -41 -11 -41 1 0 5 7 7 15 3 8 -3 15 0 15 5 0 7 -11 9 -25 7 -19 -4 -25 -1 -25 13 0 17 9 19 108 19 60 0 150 -3 200 -6z m-108 -154 c0 -11 -4 -20 -9 -20 -5 0 -7 9 -4 20 3 11 7 20 9 20 2 0 4 -9 4 -20z m-67 -125 c4 -127 4 -130 -17 -131 -20 -2 -21 2 -18 64 3 43 7 60 13 51 7 -11 9 -9 9 9 0 12 -4 22 -10 22 -6 0 -9 25 -8 58 l1 57 7 -55 7 -55 1 59 c3 96 9 61 15 -79z m86 73 c-1 -29 -3 -45 -6 -35 -5 20 -20 23 -26 5 -2 -7 -2 -2 0 12 3 14 9 27 14 28 5 2 9 12 9 23 0 10 2 19 5 19 3 0 4 -24 4 -52z m1311 37 c0 -3 -225 -341 -236 -354 -2 -2 -7 -2 -10 2 -6 6 29 71 89 162 93 140 157 218 157 190z m-1982 -100 c4 -29 -20 -58 -41 -49 -17 6 -24 54 -10 68 14 14 48 1 51 -19z m649 -17 c-1 -14 3 -22 11 -20 8 1 12 -11 11 -40 l-2 -43 -7 35 c-6 29 -8 31 -10 10 -1 -14 -1 -36 0 -49 1 -14 -2 -21 -9 -17 -14 9 -15 146 -1 146 5 0 9 -10 7 -22z m1893 -26 c0 -14 -269 -276 -276 -269 -9 9 26 48 160 180 92 90 116 109 116 89z m-1484 -389 c-5 -5 -41 73 -50 109 -3 12 8 -6 25 -41 16 -35 28 -65 25 -68z m-1322 75 c-3 -4 4 -8 15 -8 12 0 21 6 21 13 0 8 3 8 8 2 4 -6 14 -10 22 -10 21 2 45 -21 81 -76 l31 -49 70 0 71 0 -7 -60 c-3 -33 -9 -86 -12 -118 l-6 -59 -127 5 c-111 4 -291 -8 -358 -25 l-22 -5 26 54 c14 29 52 112 85 183 32 72 67 137 77 145 10 9 16 22 14 30 -4 13 -3 13 6 0 5 -8 7 -18 5 -22z m1160 -2 c21 -2 42 -8 46 -13 12 -11 251 -515 247 -519 -2 -2 -37 4 -78 13 -103 24 -368 24 -461 0 l-68 -17 -52 31 c-62 37 -200 91 -276 109 -50 11 -53 14 -48 39 3 14 8 58 11 96 11 137 11 135 55 135 l40 0 0 -65 0 -65 110 0 110 0 0 65 0 65 88 0 c94 0 103 3 121 38 23 44 81 100 99 96 9 -2 34 -5 56 -8z m-1378 -48 c-27 -78 -133 -359 -137 -362 -2 -1 -40 -15 -84 -30 -44 -16 -106 -43 -137 -61 -50 -30 -69 -35 -155 -41 -83 -5 -278 -46 -334 -69 -18 -7 -21 23 -35 432 l-6 173 449 2 c246 2 449 2 451 1 2 0 -3 -21 -12 -45z m3684 -384 c-1 -399 -2 -425 -18 -419 -109 46 -175 42 -377 -20 l-140 -44 120 -1 c81 0 196 -12 354 -35 129 -19 237 -33 239 -30 2 2 -21 18 -52 35 l-56 32 0 121 c1 67 -2 272 -5 455 l-6 332 726 0 725 0 0 -560 0 -560 -423 -1 c-232 -1 -426 0 -432 1 -5 1 -21 4 -34 7 -14 2 -29 7 -34 10 -28 17 -165 44 -252 49 -108 7 -240 -11 -341 -45 -54 -18 -57 -18 -117 1 -147 46 -331 61 -473 38 l-60 -10 -100 55 c-178 99 -386 169 -582 197 -80 11 -94 17 -172 69 -107 71 -133 85 -248 128 l-93 36 -115 285 c-63 156 -114 288 -114 292 0 4 468 8 1040 8 l1040 0 0 -426z m-2400 -275 c428 -40 778 -214 931 -461 29 -48 29 -50 8 -35 -68 49 -99 58 -227 67 -70 5 -146 10 -168 10 -36 0 -43 4 -48 24 -16 66 -192 209 -343 280 -34 16 -61 32 -59 35 2 3 -6 6 -17 7 -12 1 -65 13 -117 28 -52 14 -140 29 -195 34 -99 7 -99 7 -40 13 102 10 156 9 275 -2z m-517 -175 c213 -35 500 -142 632 -234 l30 -21 -175 6 -175 5 -45 50 c-25 27 -75 67 -112 88 -37 22 -64 43 -60 47 4 5 2 5 -4 2 -6 -4 -47 6 -90 22 -44 16 -112 34 -151 41 -40 6 -73 14 -73 16 0 7 122 -6 223 -22z m1933 -549 c27 -8 71 -28 98 -45 l49 -31 -63 -64 -62 -63 -52 24 c-93 44 -156 22 -156 -55 0 -49 19 -66 146 -129 145 -73 190 -124 201 -227 8 -80 -18 -148 -83 -212 -127 -124 -310 -123 -459 1 l-40 34 60 68 c32 38 60 71 62 73 1 2 17 -7 35 -21 90 -69 143 -75 194 -24 67 67 32 120 -118 182 -115 48 -160 90 -184 170 -62 215 139 388 372 319z m-1803 -7 c3 -7 75 -186 162 -398 86 -212 166 -406 176 -432 l19 -48 -98 0 -97 0 -33 85 -34 85 -150 0 c-82 0 -148 4 -146 8 2 5 16 43 33 85 l30 77 77 0 c43 0 78 4 78 9 0 4 -22 61 -49 125 l-48 118 -26 -64 c-15 -35 -56 -137 -92 -228 -36 -91 -78 -195 -93 -232 l-27 -68 -97 0 -96 0 165 413 c91 226 171 427 178 445 l14 32 74 0 c51 0 76 -4 80 -12z m1129 -428 c97 -239 178 -439 178 -443 0 -4 -43 -6 -96 -5 l-96 3 -32 80 -32 80 -153 3 c-84 1 -151 6 -149 11 2 4 16 42 33 84 l29 76 83 3 82 3 -52 124 c-28 69 -53 119 -55 111 -3 -7 -25 -61 -49 -119 -24 -58 -76 -186 -114 -283 l-70 -178 -95 0 c-52 0 -94 2 -94 5 0 3 79 203 176 445 l176 441 76 -3 76 -3 178 -435z m1511 253 c42 -104 123 -304 181 -445 l105 -258 -98 0 -98 0 -33 85 -33 85 -149 0 c-82 0 -148 4 -146 8 2 5 16 43 33 85 l30 77 77 0 c43 0 78 2 78 5 0 13 -94 235 -99 235 -3 0 -41 -89 -83 -197 -43 -109 -95 -238 -116 -288 l-40 -90 -96 -3 -97 -3 14 33 c7 18 87 219 178 445 l164 413 76 0 75 0 77 -187z m-1976 -1170 c-3 -10 -15 -46 -28 -80 l-22 -61 57 -53 c31 -28 55 -53 53 -55 -2 -2 -32 5 -68 16 -35 11 -69 20 -75 20 -6 0 -34 -27 -62 -61 -29 -34 -52 -55 -52 -48 0 7 10 44 22 82 l23 69 -58 51 c-32 29 -57 55 -57 59 0 4 34 -5 76 -19 l77 -26 48 54 c26 30 48 57 49 62 0 4 5 7 11 7 6 0 9 -8 6 -17z m1376 -67 c29 13 60 29 70 35 37 21 29 -1 -23 -61 l-53 -61 32 -71 c32 -73 34 -92 6 -65 -8 9 -35 32 -60 52 l-44 37 -58 -27 c-32 -15 -66 -32 -75 -37 -30 -15 -20 4 32 62 28 30 50 60 50 66 0 6 -11 37 -25 68 -14 31 -25 61 -25 67 0 6 27 -12 61 -40 l60 -51 52 26z m-732 -211 c1 -33 4 -65 6 -72 3 -7 35 -22 71 -34 37 -12 71 -25 75 -29 5 -4 -22 -11 -59 -15 -37 -4 -73 -9 -81 -12 -7 -3 -23 -39 -35 -79 -12 -41 -25 -71 -29 -67 -6 7 -18 92 -19 135 0 12 -20 23 -70 39 -39 12 -73 25 -75 30 -3 4 23 10 58 14 94 10 92 9 112 83 10 37 20 71 23 75 10 19 21 -12 23 -68z" />
    <path d="M5238 5573 c7 -3 16 -2 19 1 4 3 -2 6 -13 5 -11 0 -14 -3 -6 -6z" />
    <path d="M5285 5570 c-3 -6 1 -7 9 -4 18 7 21 14 7 14 -6 0 -13 -4 -16 -10z" />
    <path d="M5095 5532 c-15 -10 -18 -35 -4 -30 7 2 13 12 15 21 3 19 3 19 -11 9z" />
    <path d="M5280 5343 c0 -8 5 -13 12 -11 18 6 21 25 3 25 -8 0 -15 -7 -15 -14z" />
    <path d="M1700 4548 c0 -19 2 -20 10 -8 13 19 13 30 0 30 -5 0 -10 -10 -10 -22z" />
    <path d="M1690 4509 c0 -5 5 -7 10 -4 6 3 10 8 10 11 0 2 -4 4 -10 4 -5 0 -10 -5 -10 -11z" />
    <path d="M2391 4136 c2 -2 18 -6 34 -10 22 -5 26 -4 15 4 -14 9 -59 15 -49 6z" />
    <path d="M2431 4094 c0 -11 3 -14 6 -6 3 7 2 16 -1 19 -3 4 -6 -2 -5 -13z" />
    <path d="M2152 3835 c0 -16 2 -22 5 -12 2 9 2 23 0 30 -3 6 -5 -1 -5 -18z" />
    <path d="M2410 3829 c0 -5 5 -7 10 -4 6 3 10 8 10 11 0 2 -4 4 -10 4 -5 0 -10 -5 -10 -11z" />
    <path d="M2168 3763 c12 -2 32 -2 45 0 12 2 2 4 -23 4 -25 0 -35 -2 -22 -4z" />
    <path d="M5963 3253 l-133 -4 1 -32 c0 -18 6 -54 13 -82 l11 -50 148 0 c168 0 155 -10 136 106 -9 54 -15 69 -28 67 -9 -1 -76 -4 -148 -5z" />
    <path d="M5330 3234 c0 -8 5 -47 12 -85 l11 -70 146 7 c80 4 146 7 147 8 1 0 -4 36 -9 79 l-10 77 -149 0 c-127 0 -148 -2 -148 -16z" />
    <path d="M5650 3240 c0 -6 5 -42 11 -80 l12 -69 74 -3 c41 -2 76 -2 77 -1 1 1 -3 37 -9 80 l-11 78 -77 3 c-51 2 -77 -1 -77 -8z" />
    <path d="M5354 3040 c3 -14 8 -45 11 -70 12 -87 -1 -80 167 -80 l150 0 -5 23 c-3 12 -11 51 -17 87 l-11 65 -150 0 -150 0 5 -25z" />
    <path d="M5678 3065 c-4 -4 -5 -12 -3 -18 2 -7 9 -45 15 -84 l12 -73 80 0 c71 0 79 2 74 18 -3 9 -10 47 -17 85 -10 58 -14 67 -33 67 -11 0 -43 3 -71 6 -27 3 -53 3 -57 -1z" />
    <path d="M5850 3061 c0 -9 18 -116 25 -148 5 -23 8 -23 155 -23 171 0 157 -11 137 105 l-12 70 -153 2 c-83 1 -152 -2 -152 -6z" />
    <path d="M5048 2883 c7 -3 16 -2 19 1 4 3 -2 6 -13 5 -11 0 -14 -3 -6 -6z" />
    <path d="M5460 2795 c0 -35 -25 -65 -56 -66 -10 0 -57 -13 -104 -28 l-85 -27 213 -13 c253 -16 277 -10 164 41 l-71 33 -3 45 c-3 41 -5 45 -30 46 -25 1 -28 -2 -28 -31z" />
    <path d="M3893 2783 c9 -2 23 -2 30 0 6 3 -1 5 -18 5 -16 0 -22 -2 -12 -5z" />
    <path d="M5895 2731 c-38 -11 -104 -31 -145 -45 l-75 -25 65 7 c87 9 383 5 456 -7 33 -5 61 -7 63 -5 8 8 -32 31 -103 59 -92 36 -171 41 -261 16z" />
    <path d="M2618 2773 c7 -3 16 -2 19 1 4 3 -2 6 -13 5 -11 0 -14 -3 -6 -6z" />
    <path d="M2700 2740 c0 -4 20 -16 45 -25 24 -10 42 -21 40 -25 -3 -5 4 -6 15 -3 12 3 19 7 18 8 -12 12 -118 52 -118 45z" />
    <path d="M5840 6126 c-139 -49 -159 -74 -91 -113 37 -21 71 -73 71 -107 0 -19 55 -23 66 -4 4 6 16 52 26 102 10 50 21 103 25 119 7 34 -7 34 -97 3z" />
    <path d="M5665 5993 c-40 -10 -65 -44 -65 -88 0 -49 22 -82 66 -101 38 -16 58 -11 97 24 69 65 -4 189 -98 165z" />
    <path d="M5428 813 c12 -2 32 -2 45 0 12 2 2 4 -23 4 -25 0 -35 -2 -22 -4z" />
    <path d="M5333 803 c9 -2 25 -2 35 0 9 3 1 5 -18 5 -19 0 -27 -2 -17 -5z" />
  </g>
</svg>